<svg width="703" height="703" viewBox="0 0 703 703" fill="none" xmlns="http://www.w3.org/2000/svg">
<path d="M253.041 4.00001C253.041 1.79087 254.831 0 257.041 0H447.041C449.25 0 451.041 1.79086 451.041 4V699C451.041 701.209 449.25 703 447.041 703H257.041C254.831 703 253.041 701.209 253.041 699V4.00001Z" fill="url(#paint0_linear_462_268)"/>
<path d="M4.00001 450.347C1.79087 450.347 0 448.556 0 446.347V256.347C0 254.138 1.79086 252.347 4 252.347H699C701.209 252.347 703 254.138 703 256.347V446.347C703 448.556 701.209 450.347 699 450.347H4.00001Z" fill="url(#paint1_linear_462_268)"/>
<defs>
<linearGradient id="paint0_linear_462_268" x1="351.5" y1="0" x2="351.5" y2="703" gradientUnits="userSpaceOnUse">
<stop stop-color="#D9D9D9"/>
<stop offset="1" stop-color="#737373"/>
</linearGradient>
<linearGradient id="paint1_linear_462_268" x1="351.5" y1="0" x2="351.5" y2="703" gradientUnits="userSpaceOnUse">
<stop stop-color="#D9D9D9"/>
<stop offset="1" stop-color="#737373"/>
</linearGradient>
</defs>
</svg>
