<svg width="107" height="107" viewBox="0 0 107 107" fill="none" xmlns="http://www.w3.org/2000/svg">
<path d="M38.514 0.608821C38.514 0.27258 38.7866 0 39.1228 0H68.0417C68.378 0 68.6506 0.272578 68.6506 0.608819V106.391C68.6506 106.727 68.378 107 68.0417 107H39.1228C38.7866 107 38.514 106.727 38.514 106.391V0.608821Z" fill="url(#paint0_linear_462_268)"/>
<path d="M0.608821 68.5449C0.27258 68.5449 0 68.2724 0 67.9361V39.0172C0 38.681 0.272578 38.4084 0.608819 38.4084H106.391C106.727 38.4084 107 38.681 107 39.0172V67.9361C107 68.2724 106.727 68.5449 106.391 68.5449H0.608821Z" fill="url(#paint1_linear_462_268)"/>
<defs>
<linearGradient id="paint0_linear_462_268" x1="53.5" y1="0" x2="53.5" y2="107" gradientUnits="userSpaceOnUse">
<stop stop-color="#D9D9D9"/>
<stop offset="1" stop-color="#737373"/>
</linearGradient>
<linearGradient id="paint1_linear_462_268" x1="53.5" y1="0" x2="53.5" y2="107" gradientUnits="userSpaceOnUse">
<stop stop-color="#D9D9D9"/>
<stop offset="1" stop-color="#737373"/>
</linearGradient>
</defs>
</svg>
