<svg xmlns="http://www.w3.org/2000/svg" viewBox="0 0 24 24" fill="none">
  <defs>
    <linearGradient id="gradCompany" x1="0" y1="0" x2="1" y2="1">
      <stop offset="0" stop-color="#C1BCC7"/>
      <stop offset="1" stop-color="#7E7886"/>
    </linearGradient>
  </defs>

  <path fill="url(#gradCompany)" fill-rule="evenodd" d="
    M5 3h14a2 2 0 0 1 2 2v14a2 2 0 0 1-2 2H5a2 2 0 0 1-2-2V5a2 2 0 0 1 2-2z
    M10 14h4v7h-4v-7z
    M7 8h2v2H7V8zm4 0h2v2h-2V8zm4 0h2v2h-2V8z
    M7 11h2v2H7v-2zm4 0h2v2h-2v-2zm4 0h2v2h-2v-2z" 
  />
</svg>
