<svg width="277" height="277" viewBox="0 0 277 277" fill="none" xmlns="http://www.w3.org/2000/svg">
<path d="M269 138.5C269 66.4268 210.573 8 138.5 8C66.4268 8 8 66.4268 8 138.5C8 210.573 66.4268 269 138.5 269C210.573 269 269 210.573 269 138.5ZM277 138.5C277 214.991 214.991 277 138.5 277C62.0086 277 0 214.991 0 138.5C0 62.0086 62.0086 0 138.5 0C214.991 0 277 62.0086 277 138.5Z" fill="url(#paint0_linear_477_261)"/>
<path d="M133.595 234V42H145.906V234H133.595ZM169.101 103.425C168.4 96.875 165.447 91.775 160.243 88.125C155.089 84.475 148.383 82.65 140.126 82.65C134.321 82.65 129.342 83.525 125.188 85.275C121.035 87.025 117.857 89.4 115.655 92.4C113.453 95.4 112.327 98.825 112.277 102.675C112.277 105.875 113.003 108.65 114.454 111C115.955 113.35 117.982 115.35 120.534 117C123.087 118.6 125.914 119.95 129.017 121.05C132.119 122.15 135.247 123.075 138.399 123.825L152.812 127.425C158.617 128.775 164.196 130.6 169.551 132.9C174.955 135.2 179.785 138.1 184.038 141.6C188.342 145.1 191.745 149.325 194.247 154.275C196.749 159.225 198 165.025 198 171.675C198 180.675 195.698 188.6 191.094 195.45C186.49 202.25 179.835 207.575 171.127 211.425C162.47 215.225 151.986 217.125 139.676 217.125C127.715 217.125 117.332 215.275 108.524 211.575C99.7667 207.875 92.9109 202.475 87.9567 195.375C83.0526 188.275 80.4003 179.625 80 169.425H107.398C107.799 174.775 109.45 179.225 112.352 182.775C115.255 186.325 119.033 188.975 123.687 190.725C128.391 192.475 133.645 193.35 139.45 193.35C145.506 193.35 150.81 192.45 155.364 190.65C159.968 188.8 163.571 186.25 166.173 183C168.775 179.7 170.101 175.85 170.151 171.45C170.101 167.45 168.925 164.15 166.623 161.55C164.321 158.9 161.094 156.7 156.94 154.95C152.837 153.15 148.033 151.55 142.528 150.15L125.038 145.65C112.377 142.4 102.369 137.475 95.0127 130.875C87.7065 124.225 84.0534 115.4 84.0534 104.4C84.0534 95.35 86.5055 87.425 91.4097 80.625C96.3639 73.825 103.095 68.55 111.602 64.8C120.109 61 129.742 59.1 140.501 59.1C151.411 59.1 160.969 61 169.176 64.8C177.433 68.55 183.913 73.775 188.617 80.475C193.321 87.125 195.748 94.775 195.898 103.425H169.101Z" fill="url(#paint1_linear_477_261)"/>
<defs>
<linearGradient id="paint0_linear_477_261" x1="138.5" y1="0" x2="138.5" y2="277" gradientUnits="userSpaceOnUse">
<stop stop-color="#C1BCC7"/>
<stop offset="1" stop-color="#7E7886"/>
</linearGradient>
<linearGradient id="paint1_linear_477_261" x1="138.5" y1="0" x2="138.5" y2="277" gradientUnits="userSpaceOnUse">
<stop stop-color="#C1BCC7"/>
<stop offset="1" stop-color="#7E7886"/>
</linearGradient>
</defs>
</svg>
