<svg width="223" height="298" viewBox="0 0 223 298" fill="none" xmlns="http://www.w3.org/2000/svg">
<path d="M173 37C173 41.4183 169.418 45 165 45H58C53.5817 45 50 41.4183 50 37V8C50 3.58172 53.5817 0 58 0H165C169.418 0 173 3.58172 173 8V37Z" fill="#FBB35A"/>
<path fill-rule="evenodd" clip-rule="evenodd" d="M215 24C219.418 24 223 27.5817 223 32V290C223 294.418 219.418 298 215 298H8C3.58172 298 0 294.418 0 290V32C2.44825e-06 27.5817 3.58172 24 8 24H215ZM40 197C35.5817 197 32 200.582 32 205V210C32 214.418 35.5817 218 40 218H183C187.418 218 191 214.418 191 210V205C191 200.582 187.418 197 183 197H40ZM40 144C35.5817 144 32 147.582 32 152V157C32 161.418 35.5817 165 40 165H183C187.418 165 191 161.418 191 157V152C191 147.582 187.418 144 183 144H40ZM40 91C35.5817 91 32 94.5817 32 99V104C32 108.418 35.5817 112 40 112H183C187.418 112 191 108.418 191 104V99C191 94.5817 187.418 91 183 91H40Z" fill="url(#paint0_linear_479_271)"/>
<defs>
<linearGradient id="paint0_linear_479_271" x1="111.5" y1="0" x2="111.5" y2="298" gradientUnits="userSpaceOnUse">
<stop stop-color="#FBB35A"/>
<stop offset="1" stop-color="#E88100"/>
</linearGradient>
</defs>
</svg>
