<svg width="34" height="34" viewBox="0 0 34 34" fill="none" xmlns="http://www.w3.org/2000/svg">
<g clip-path="url(#clip0_253_418)">
<path fill-rule="evenodd" clip-rule="evenodd" d="M23.9006 24.5339C27.8805 20.7048 28.0028 14.3743 24.1737 10.3944C20.3445 6.41447 14.0141 6.29224 10.0342 10.1214C6.05425 13.9505 5.93202 20.281 9.76114 24.2609C13.5903 28.2408 19.9207 28.363 23.9006 24.5339ZM25.2873 25.9751C30.0632 21.3802 30.2099 13.7836 25.6149 9.00773C21.02 4.23184 13.4234 4.08516 8.64751 8.68011C3.87162 13.2751 3.72494 20.8716 8.31989 25.6475C12.9148 30.4234 20.5114 30.5701 25.2873 25.9751Z" fill="#F01111"/>
<path d="M11.3662 14.3905C10.9833 13.9925 10.9955 13.3595 11.3935 12.9766L12.8348 11.5899C13.2327 11.207 13.8658 11.2192 14.2487 11.6172L22.5686 20.2647C22.9515 20.6627 22.9393 21.2958 22.5413 21.6787L21.1 23.0653C20.7021 23.4482 20.069 23.436 19.6861 23.038L11.3662 14.3905Z" fill="#F01111"/>
<path d="M14.0303 22.9288C13.6323 23.3117 12.9993 23.2995 12.6163 22.9015L11.2297 21.4603C10.8468 21.0623 10.859 20.4292 11.257 20.0463L19.9045 11.7264C20.3025 11.3435 20.9355 11.3557 21.3185 11.7537L22.7051 13.195C23.088 13.593 23.0758 14.226 22.6778 14.6089L14.0303 22.9288Z" fill="#F01111"/>
</g>
<defs>
<clipPath id="clip0_253_418">
<rect width="24" height="24" fill="white" transform="translate(0 16.6398) rotate(-43.8938)"/>
</clipPath>
</defs>
</svg>
