<svg width="115" height="128" viewBox="0 0 115 128" fill="none" xmlns="http://www.w3.org/2000/svg">
<path d="M0 24.0002C0 21.2388 2.23858 19.0002 5 19.0002H110C112.761 19.0002 115 21.2388 115 24.0002C115 26.7617 112.761 29.0002 110 29.0002H5C2.23858 29.0002 0 26.7617 0 24.0002Z" fill="currentColor"/>
<path fill-rule="evenodd" clip-rule="evenodd" d="M6.50098 27.9993C32.0005 27.5004 75 27.9991 108.501 27.9993C95.5 99.0002 103.5 121 84.5 127.999H30C10.0001 118.5 20.4999 94.0001 6.50098 27.9993ZM75.998 46.5002C74.497 42.0002 65.9979 43.0002 65.998 46.5002C65.9997 68.5002 65.9999 90.0001 65.998 99.0002C66.5005 103.5 75.998 103.5 75.998 99.0002V46.5002ZM49 46.012C47.4989 41.512 38.9999 42.512 39 46.012C39.0016 68.0119 39.0018 89.5119 39 98.512C39.5024 103.012 48.9999 103.012 49 98.512V46.012Z" fill="currentColor"/>
<path d="M69.499 8.5C73.1465 8.5 73.999 19.5 73.999 19.5H82.999C81.5 11.5002 76 0 71.5 0H43.5C38 0 34 8.50001 31.499 19.5H41.999C41.999 19.5 41.999 9.50024 46 8.5H69.499Z" fill="currentColor"/>
</svg>
