<svg width="24" height="24" viewBox="0 0 24 24" fill="none" xmlns="http://www.w3.org/2000/svg">
<path d="M12 7V6H6C5.44772 6 5 6.44772 5 7V17C5 17.5523 5.44772 18 6 18H18C18.5523 18 19 17.5523 19 17V12H18" stroke="url(#paint0_linear_253_414)" stroke-width="2"/>
<path d="M12.9485 10.1535C12.972 10.083 13.0615 10.0619 13.1141 10.1144L14.8853 11.8856C14.9378 11.9382 14.9167 12.0277 14.8462 12.0512L12.1894 12.9368C12.1112 12.9628 12.0369 12.8884 12.0629 12.8103L12.9485 10.1535Z" fill="url(#paint1_linear_253_414)"/>
<path d="M16.7934 6.0098C16.8321 5.97043 16.8954 5.96991 16.9348 6.00863L18.971 8.01139C19.0103 8.05012 19.0109 8.11344 18.9721 8.15281L15.2561 11.9308C15.2174 11.9701 15.1544 11.971 15.115 11.9322C14.9326 11.7528 14.4379 11.2662 14.0966 10.9305C13.7554 10.5949 13.2607 10.1083 13.0783 9.92886C13.0389 9.89013 13.0387 9.82713 13.0774 9.78775L16.7934 6.0098Z" fill="url(#paint2_linear_253_414)"/>
<path d="M18.2799 5.00606C18.345 4.96363 18.3776 4.94242 18.4128 4.94609C18.4481 4.94975 18.4756 4.97721 18.5305 5.03213L19.8759 6.37647C19.9294 6.42998 19.9562 6.45673 19.9603 6.49118C19.9643 6.52562 19.9446 6.5579 19.905 6.62244L19.2385 7.71025C19.1778 7.80918 19.1475 7.85864 19.0996 7.86451C19.0517 7.87038 19.0105 7.82979 18.9279 7.7486C18.7069 7.5312 18.3265 7.15699 18.0499 6.88495C17.7724 6.61205 17.3905 6.23633 17.1698 6.01925C17.0881 5.93891 17.0472 5.89874 17.052 5.85108C17.0568 5.80342 17.1049 5.77207 17.201 5.70937L18.2799 5.00606Z" fill="url(#paint3_linear_253_414)"/>
<defs>
<linearGradient id="paint0_linear_253_414" x1="12" y1="6" x2="12" y2="18" gradientUnits="userSpaceOnUse">
<stop stop-color="#FBB35A"/>
<stop offset="1" stop-color="#E88100"/>
</linearGradient>
<linearGradient id="paint1_linear_253_414" x1="16.0092" y1="4.94568" x2="16.0092" y2="12.9421" gradientUnits="userSpaceOnUse">
<stop stop-color="#FBB35A"/>
<stop offset="1" stop-color="#E88100"/>
</linearGradient>
<linearGradient id="paint2_linear_253_414" x1="16.0092" y1="4.94568" x2="16.0092" y2="12.9421" gradientUnits="userSpaceOnUse">
<stop stop-color="#FBB35A"/>
<stop offset="1" stop-color="#E88100"/>
</linearGradient>
<linearGradient id="paint3_linear_253_414" x1="16.0092" y1="4.94568" x2="16.0092" y2="12.9421" gradientUnits="userSpaceOnUse">
<stop stop-color="#FBB35A"/>
<stop offset="1" stop-color="#E88100"/>
</linearGradient>
</defs>
</svg>
