<svg width="25" height="17" viewBox="0 0 25 17" fill="none" xmlns="http://www.w3.org/2000/svg">
<path d="M0.5 2.5C0.5 1.39543 1.39543 0.5 2.5 0.5H22.5C23.6046 0.5 24.5 1.39543 24.5 2.5V14.5C24.5 15.6046 23.6046 16.5 22.5 16.5H2.5C1.39543 16.5 0.5 15.6046 0.5 14.5V2.5Z" fill="url(#paint0_linear_350_333)"/>
<path fill-rule="evenodd" clip-rule="evenodd" d="M23.4 3.7C23.5657 3.92091 23.5209 4.23431 23.3 4.4C21.9918 5.38119 20.2128 6.76567 18.4832 8.1118L18.4722 8.12033C16.7499 9.46081 15.076 10.7636 13.9795 11.5799C13.0882 12.2434 11.9038 12.1486 11.061 11.5201C10.9317 11.4237 10.791 11.319 10.6385 11.2054C9.05605 10.027 6.20445 7.90356 1.69303 4.39468C1.47506 4.22514 1.43579 3.911 1.60532 3.69303C1.77486 3.47506 2.089 3.43579 2.30697 3.60532C6.81015 7.1078 9.65513 9.22632 11.2362 10.4037C11.3887 10.5172 11.5294 10.622 11.6588 10.7185C12.1962 11.1192 12.8925 11.1425 13.3823 10.7778C14.4703 9.96783 16.1382 8.66968 17.8683 7.32322C19.5951 5.9792 21.383 4.58778 22.7 3.6C22.9209 3.43431 23.2343 3.47909 23.4 3.7Z" fill="black"/>
<defs>
<linearGradient id="paint0_linear_350_333" x1="12.5" y1="0.5" x2="12.5" y2="16.5" gradientUnits="userSpaceOnUse">
<stop stop-color="#FBB35A"/>
<stop offset="1" stop-color="#E88100"/>
</linearGradient>
</defs>
</svg>
