<svg width="110" height="100" viewBox="0 0 110 100" fill="none" xmlns="http://www.w3.org/2000/svg">
<path d="M0 4C0 1.79086 1.79086 0 4 0H106C108.209 0 110 1.79086 110 4V96C110 98.2091 108.209 100 106 100H4C1.79086 100 0 98.2091 0 96V4Z" fill="#1B1C1D"/>
<path fill-rule="evenodd" clip-rule="evenodd" d="M40.4671 51.1328V42.987L27.7899 58.9413H74.018C88.2702 58.9413 99.931 48.7413 99.931 36.2746C99.931 23.808 88.2702 13.608 74.018 13.608H58.9316V48.4074H68.5779V21.3915H73.3244C82.6947 21.3915 90.3616 28.098 90.3616 36.2944C90.3616 44.4912 82.6947 51.1972 73.3244 51.1972H68.5779V51.1328H40.4671Z" fill="#E88100"/>
<path fill-rule="evenodd" clip-rule="evenodd" d="M10.0002 58.9413H21.7794L40.2499 35.6898L45.2344 29.4929V48.4074H54.849V13.608H45.9724L10.0002 58.9413Z" fill="white"/>
<path d="M27.9243 64.8237V69.0774H15.9975V73.8816H26.5252V78.1661H15.9975V86.0002H10.5493V64.8237H27.9243ZM37.0538 64.8237V81.655H50.0478V86.0002H31.6053V64.8237H37.0538ZM70.8461 64.8237V69.0466H58.9195V73.3311H69.4471V77.554H58.9195V81.7773H70.8461V86.0002H53.4711V64.8237H70.8461ZM89.3252 75.2896L97.6081 86.0002H91.5707L85.3864 77.6764L79.1658 86.0002H73.1282L81.4479 75.2896L73.4228 64.8237H79.4967L85.3864 72.8106L91.2761 64.8237H97.3137L89.3252 75.2896Z" fill="white"/>
</svg>
