<svg width="120" height="80" viewBox="0 0 120 80" fill="none" xmlns="http://www.w3.org/2000/svg">
<path d="M0 10C0 4.47715 4.47715 0 10 0H110C115.523 0 120 4.47715 120 10V70C120 75.5228 115.523 80 110 80H10C4.47715 80 0 75.5228 0 70V10Z" fill="url(#paint0_linear_475_263)"/>
<path fill-rule="evenodd" clip-rule="evenodd" d="M114.5 16C115.328 17.1046 115.105 18.6716 114 19.5C107.459 24.4059 98.5639 31.3284 89.9159 38.059L89.8611 38.1016C81.2494 44.8041 72.8801 51.3178 67.3973 55.3997C62.9412 58.7172 57.0188 58.2429 52.8049 55.1006C52.1586 54.6187 51.4551 54.0948 50.6927 53.5271C42.7802 47.6351 28.5223 37.0178 5.96515 19.4734C4.87528 18.6257 4.67894 17.055 5.52662 15.9651C6.37429 14.8753 7.94498 14.6789 9.03485 15.5266C31.5508 33.039 45.7756 43.6316 53.6812 49.5185C54.4436 50.0862 55.1472 50.6102 55.7938 51.0924C58.481 53.0962 61.9625 53.2123 64.4115 51.3891C69.8514 47.3392 78.1912 40.8484 86.8413 34.1161C95.4757 27.396 104.415 20.4389 111 15.5C112.105 14.6716 113.672 14.8954 114.5 16Z" fill="black"/>
<defs>
<linearGradient id="paint0_linear_475_263" x1="60" y1="0" x2="60" y2="80" gradientUnits="userSpaceOnUse">
<stop stop-color="#FBB35A"/>
<stop offset="1" stop-color="#E88100"/>
</linearGradient>
</defs>
</svg>
