<svg width="24" height="25" viewBox="0 0 24 25" fill="none" xmlns="http://www.w3.org/2000/svg">
<path d="M0 1.5C0 1.22386 0.223858 1 0.5 1H1.5C1.77614 1 2 1.22386 2 1.5V24.5C2 24.7761 1.77614 25 1.5 25H0.5C0.223858 25 0 24.7761 0 24.5V1.5Z" fill="url(#paint0_linear_410_405)"/>
<path d="M0.5 25C0.223858 25 0 24.7761 0 24.5V23.5C0 23.2239 0.223858 23 0.5 23H23.5C23.7761 23 24 23.2239 24 23.5V24.5C24 24.7761 23.7761 25 23.5 25H0.5Z" fill="url(#paint1_linear_410_405)"/>
<path d="M3 14.5C3 14.2239 3.22386 14 3.5 14H5.5C5.77614 14 6 14.2239 6 14.5V21.5C6 21.7761 5.77614 22 5.5 22H3.5C3.22386 22 3 21.7761 3 21.5V14.5Z" fill="url(#paint2_linear_410_405)"/>
<path d="M7 12.5C7 12.2239 7.22386 12 7.5 12H9.5C9.77614 12 10 12.2239 10 12.5V21.5C10 21.7761 9.77614 22 9.5 22H7.5C7.22386 22 7 21.7761 7 21.5V12.5Z" fill="url(#paint3_linear_410_405)"/>
<path d="M11 10.5C11 10.2239 11.2239 10 11.5 10H13.5C13.7761 10 14 10.2239 14 10.5V21.5C14 21.7761 13.7761 22 13.5 22H11.5C11.2239 22 11 21.7761 11 21.5V10.5Z" fill="url(#paint4_linear_410_405)"/>
<path d="M15 8.5C15 8.22386 15.2239 8 15.5 8H17.5C17.7761 8 18 8.22386 18 8.5V21.5C18 21.7761 17.7761 22 17.5 22H15.5C15.2239 22 15 21.7761 15 21.5V8.5Z" fill="url(#paint5_linear_410_405)"/>
<path d="M19 6.5C19 6.22386 19.2239 6 19.5 6H21.5C21.7761 6 22 6.22386 22 6.5V21.5C22 21.7761 21.7761 22 21.5 22H19.5C19.2239 22 19 21.7761 19 21.5V6.5Z" fill="url(#paint6_linear_410_405)"/>
<path fill-rule="evenodd" clip-rule="evenodd" d="M21.3076 1.05444C21.4869 1.26004 21.4669 1.5817 21.263 1.77287C15.7789 6.91568 11.2298 9.94622 3.26891 13.4671C3.01687 13.5786 2.73082 13.4601 2.63001 13.2024C2.5292 12.9447 2.65179 12.6455 2.90383 12.534C10.7702 9.05488 15.2211 6.08541 20.6139 1.02831C20.8178 0.837133 21.1284 0.848834 21.3076 1.05444Z" fill="url(#paint7_linear_410_405)"/>
<path fill-rule="evenodd" clip-rule="evenodd" d="M19.854 5.48656C19.5977 5.39674 19.4552 5.10604 19.5359 4.83728C19.9197 3.55785 20.3042 2.66092 20.5669 2.05468L20.5781 2.0287C20.6486 1.86607 20.7061 1.73334 20.7515 1.62298C20.6429 1.63528 20.5101 1.65349 20.3475 1.67769C20.2319 1.69492 20.1046 1.7146 19.9652 1.73615C19.3192 1.83603 18.4134 1.9761 17.1973 2.098C16.9303 2.12477 16.6894 1.91777 16.6592 1.63566C16.6291 1.35355 16.8211 1.10316 17.0881 1.07639C18.2775 0.957174 19.1566 0.82129 19.8026 0.721455C19.9442 0.699557 20.0747 0.679394 20.1947 0.661521C20.5184 0.613332 20.7967 0.576759 21.0093 0.577527C21.1156 0.577911 21.241 0.587057 21.3624 0.627965C21.4924 0.67179 21.6466 0.762877 21.7476 0.942426C21.8431 1.11207 21.8481 1.28572 21.8368 1.40531C21.8256 1.52533 21.7931 1.64279 21.759 1.74523C21.6963 1.93421 21.5935 2.17121 21.4787 2.43605C21.4703 2.45549 21.4618 2.47508 21.4532 2.49481C21.1958 3.08894 20.8303 3.942 20.4641 5.16257C20.3835 5.43133 20.1103 5.57639 19.854 5.48656Z" fill="url(#paint8_linear_410_405)"/>
<defs>
<linearGradient id="paint0_linear_410_405" x1="12" y1="1" x2="12" y2="25" gradientUnits="userSpaceOnUse">
<stop stop-color="#FBB35A"/>
<stop offset="1" stop-color="#E88100"/>
</linearGradient>
<linearGradient id="paint1_linear_410_405" x1="12" y1="1" x2="12" y2="25" gradientUnits="userSpaceOnUse">
<stop stop-color="#FBB35A"/>
<stop offset="1" stop-color="#E88100"/>
</linearGradient>
<linearGradient id="paint2_linear_410_405" x1="12" y1="1" x2="12" y2="25" gradientUnits="userSpaceOnUse">
<stop stop-color="#FBB35A"/>
<stop offset="1" stop-color="#E88100"/>
</linearGradient>
<linearGradient id="paint3_linear_410_405" x1="12" y1="1" x2="12" y2="25" gradientUnits="userSpaceOnUse">
<stop stop-color="#FBB35A"/>
<stop offset="1" stop-color="#E88100"/>
</linearGradient>
<linearGradient id="paint4_linear_410_405" x1="12" y1="1" x2="12" y2="25" gradientUnits="userSpaceOnUse">
<stop stop-color="#FBB35A"/>
<stop offset="1" stop-color="#E88100"/>
</linearGradient>
<linearGradient id="paint5_linear_410_405" x1="12" y1="1" x2="12" y2="25" gradientUnits="userSpaceOnUse">
<stop stop-color="#FBB35A"/>
<stop offset="1" stop-color="#E88100"/>
</linearGradient>
<linearGradient id="paint6_linear_410_405" x1="12" y1="1" x2="12" y2="25" gradientUnits="userSpaceOnUse">
<stop stop-color="#FBB35A"/>
<stop offset="1" stop-color="#E88100"/>
</linearGradient>
<linearGradient id="paint7_linear_410_405" x1="12.2179" y1="0.577515" x2="12.2179" y2="13.509" gradientUnits="userSpaceOnUse">
<stop stop-color="#FBB35A"/>
<stop offset="1" stop-color="#E88100"/>
</linearGradient>
<linearGradient id="paint8_linear_410_405" x1="12.2179" y1="0.577515" x2="12.2179" y2="13.509" gradientUnits="userSpaceOnUse">
<stop stop-color="#FBB35A"/>
<stop offset="1" stop-color="#E88100"/>
</linearGradient>
</defs>
</svg>
