<svg width="24" height="24" viewBox="0 0 24 24" fill="none" xmlns="http://www.w3.org/2000/svg">
<path d="M4 2.25C4 1.55964 4.59695 1 5.33333 1H18.6667C19.403 1 20 1.55964 20 2.25V19.75C20 20.4404 19.403 21 18.6667 21H5.33333C4.59695 21 4 20.4404 4 19.75V2.25Z" fill="url(#paint0_linear_269_113)"/>
<path d="M5.33333 4.625C5.33333 4.27982 5.63181 4 6 4H18C18.3682 4 18.6667 4.27982 18.6667 4.625C18.6667 4.97018 18.3682 5.25 18 5.25H6C5.63181 5.25 5.33333 4.97018 5.33333 4.625Z" fill="#1B1C1D"/>
<path d="M5.33333 7.625C5.33333 7.27982 5.63181 7 6 7H18C18.3682 7 18.6667 7.27982 18.6667 7.625C18.6667 7.97018 18.3682 8.25 18 8.25H6C5.63181 8.25 5.33333 7.97018 5.33333 7.625Z" fill="#1B1C1D"/>
<path d="M8 10.375C8 10.0298 8.29848 9.75 8.66667 9.75H15.3333C15.7015 9.75 16 10.0298 16 10.375C16 10.7202 15.7015 11 15.3333 11H8.66667C8.29848 11 8 10.7202 8 10.375Z" fill="#1B1C1D"/>
<defs>
<linearGradient id="paint0_linear_269_113" x1="12" y1="1" x2="12" y2="21" gradientUnits="userSpaceOnUse">
<stop stop-color="#FBB35A"/>
<stop offset="1" stop-color="#E88100"/>
</linearGradient>
</defs>
</svg>
