<svg width="109" height="108" viewBox="0 0 109 108" fill="none" xmlns="http://www.w3.org/2000/svg">
<path d="M67.0946 82.8083C58.5345 82.0186 32.3788 62.2746 25.721 41.583C28.5743 35.8967 40.6181 30.5268 39.8255 25.6303C39.7127 24.9335 34.5944 17.2589 32.6921 12.8362C31.2655 9.83514 28.4121 4.30703 24.9247 0.674143C1.30514 -2.01095 0.354281 27.2098 0.512773 29.4214C10.4958 74.9114 53.9338 110.608 89.1282 107.286C104.188 103.026 108.943 95.9183 108.468 83.7561C106.09 80.755 104.664 81.5447 96.2616 76.169C90.5554 73.6471 86.5913 69.9967 83.1044 69.0612C77.8738 69.0612 74.0694 78.8596 67.0946 82.8083Z" fill="url(#paint0_linear_476_261)" stroke="#7E7886"/>
<defs>
<linearGradient id="paint0_linear_476_261" x1="54.5" y1="0.5" x2="54.5" y2="107.5" gradientUnits="userSpaceOnUse">
<stop stop-color="#FBB35A"/>
<stop offset="1" stop-color="#E88100"/>
</linearGradient>
</defs>
</svg>
