<svg width="342" height="340" viewBox="0 0 342 340" fill="none" xmlns="http://www.w3.org/2000/svg">
<path d="M210.552 261.05C183.552 258.55 101.052 196.049 80.0517 130.549C89.0517 112.549 127.04 95.5507 124.54 80.0507C124.184 77.845 108.04 53.5507 102.04 39.5507C97.5401 30.0507 88.5401 12.5513 77.5401 1.05126C3.03955 -7.44849 0.040374 85.0507 0.540287 92.0515C32.0286 236.051 169.04 349.05 280.05 338.533C327.551 325.05 342.551 302.55 341.052 264.05C333.552 254.55 329.052 257.049 302.55 240.033C284.552 232.049 272.048 220.494 261.05 217.533C244.552 217.533 232.552 248.55 210.552 261.05Z" fill="url(#paint0_linear_457_422)" stroke="#7E7886"/>
<defs>
<linearGradient id="paint0_linear_457_422" x1="-37.5" y1="15.5" x2="261.5" y2="352.5" gradientUnits="userSpaceOnUse">
<stop offset="0.00790752" stop-color="#C1BCC7"/>
<stop offset="1" stop-color="#7E7886"/>
</linearGradient>
</defs>
</svg>
