<svg width="254" height="304" viewBox="0 0 254 304" fill="none" xmlns="http://www.w3.org/2000/svg">
<path d="M0 52C0 40.9543 8.95431 32 20 32H234C245.046 32 254 40.9543 254 52V73H0V52Z" fill="url(#paint0_linear_484_287)"/>
<path d="M89 23.5V32.5H69.5C69.5 32.5 69.5 27.5 70.5 19.5C78.5 1 93 0 93 0H162.5C162.5 0 177.5 3.5 183.5 19C185 25.5 185 32.5 185 32.5H164.5C164.5 32.5 164.887 26.9786 164.5 23.5C164 19 158 18 156.5 18H96C90 18 89 23.5 89 23.5Z" fill="url(#paint1_linear_484_287)"/>
<path fill-rule="evenodd" clip-rule="evenodd" d="M221.048 297.222C220.445 301.122 217.088 304 213.142 304H39.4678C35.474 304 32.0914 301.055 31.543 297.099L2 84H254L221.048 297.222ZM185.762 120.715C180.253 120.32 175.467 124.466 175.072 129.975L165.714 260.64C165.319 266.148 169.465 270.933 174.974 271.328C180.482 271.723 185.269 267.577 185.663 262.068L195.021 131.403C195.416 125.895 191.27 121.109 185.762 120.715ZM127 120C121.477 120 117 124.477 117 130V261C117 266.523 121.477 271 127 271C132.523 271 137 266.523 137 261V130C137 124.477 132.523 120 127 120ZM76.834 127.958C76.3266 122.459 71.4574 118.412 65.958 118.919C60.4586 119.426 56.4116 124.296 56.9189 129.795L68.9541 260.241C69.4616 265.741 74.3316 269.788 79.8311 269.28C85.3305 268.773 89.3775 263.903 88.8701 258.403L76.834 127.958Z" fill="url(#paint2_linear_484_287)"/>
<defs>
<linearGradient id="paint0_linear_484_287" x1="127" y1="0" x2="127" y2="304" gradientUnits="userSpaceOnUse">
<stop stop-color="#737373"/>
<stop offset="1" stop-color="#D9D9D9"/>
</linearGradient>
<linearGradient id="paint1_linear_484_287" x1="127" y1="0" x2="127" y2="304" gradientUnits="userSpaceOnUse">
<stop stop-color="#737373"/>
<stop offset="1" stop-color="#D9D9D9"/>
</linearGradient>
<linearGradient id="paint2_linear_484_287" x1="127" y1="0" x2="127" y2="304" gradientUnits="userSpaceOnUse">
<stop stop-color="#737373"/>
<stop offset="1" stop-color="#D9D9D9"/>
</linearGradient>
</defs>
</svg>
