<svg width="200" height="202" viewBox="0 0 200 202" fill="none" xmlns="http://www.w3.org/2000/svg">
<path d="M191.704 202C196.122 202 199.737 198.413 199.384 194.008C198.551 183.614 196.095 173.396 192.092 163.732C187.067 151.599 179.701 140.575 170.415 131.289C161.129 122.003 150.105 114.638 137.972 109.612C125.84 104.587 112.836 102 99.704 102C86.5718 102 73.5682 104.587 61.4357 109.612C49.3031 114.638 38.2792 122.003 28.9933 131.289C19.7075 140.575 12.3415 151.599 7.31606 163.732C3.31284 173.396 0.857221 183.614 0.0238505 194.008C-0.329239 198.413 3.28574 202 7.70402 202L191.704 202Z" fill="#a49fa8"/>
<path d="M149.704 50C149.704 77.6142 127.318 100 99.704 100C72.0898 100 49.704 77.6142 49.704 50C49.704 22.3858 72.0898 0 99.704 0C127.318 0 149.704 22.3858 149.704 50Z" fill="#a49fa8"/>
</svg>
