<svg width="128" height="33" viewBox="0 0 128 33" fill="none" xmlns="http://www.w3.org/2000/svg">
<path fill-rule="evenodd" clip-rule="evenodd" d="M26.4256 27.3335H22.6872V25.4096V21.5835L13.1793 32.8453H47.8504C58.5396 32.8453 67.2851 25.6454 67.2851 16.8453C67.2851 8.04537 58.5396 0.845337 47.8504 0.845337H36.5356V25.4096H43.7703V6.33963H47.3302C54.3579 6.33963 60.1081 11.0736 60.1081 16.8593C60.1081 22.6452 54.3579 27.3789 47.3302 27.3789H43.7703V27.3335H36.5356H33.6365H26.4256Z" fill="#E88100"/>
<path fill-rule="evenodd" clip-rule="evenodd" d="M0 32.8453H8.83438L22.6873 16.4325L26.4256 12.0582V25.4096H33.6366V0.845337H26.9791L0 32.8453Z" fill="white"/>
<path d="M81.8285 19.1642V21.9123H74.0477V25.0161H80.9157V27.7841H74.0477V32.8453H70.4934V19.1642H81.8285ZM87.7843 19.1642V30.0381H96.2614V32.8453H84.2299V19.1642H87.7843ZM109.83 19.1642V21.8924H102.049V24.6604H108.917V27.3887H102.049V30.1171H109.83V32.8453H98.4946V19.1642H109.83ZM121.885 25.9257L127.289 32.8453H123.35L119.315 27.4677L115.257 32.8453H111.318L116.746 25.9257L111.511 19.1642H115.473L119.315 24.3241L123.158 19.1642H127.096L121.885 25.9257Z" fill="white"/>
</svg>
